<svg width="42" height="42" viewBox="0 0 42 42" fill="none" xmlns="http://www.w3.org/2000/svg">
<path d="M20.7929 40.8191C31.7815 40.8164 40.7355 31.9007 40.7929 20.9046C40.8503 9.90856 31.9893 0.997239 21.0006 0.999959C10.012 1.00268 1.05799 9.91841 1.00063 20.9145C0.943266 31.9105 9.80427 40.8219 20.7929 40.8191Z" stroke="#DDD7F9" stroke-width="2" stroke-linejoin="round"/>
<path d="M24.3845 30.7796C24.7726 31.1704 25.4058 31.1708 25.7987 30.7805C26.1916 30.3903 26.1955 29.7571 25.8074 29.3663L25.0959 30.073L24.3845 30.7796ZM16.2043 21.1202L15.5002 20.4139C15.1085 20.8044 15.1052 21.4365 15.4928 21.8268L16.2043 21.1202ZM25.8934 12.8694C26.2856 12.4784 26.2884 11.8452 25.8995 11.4552C25.5107 11.0651 24.8775 11.0659 24.4853 11.4568L25.1894 12.1631L25.8934 12.8694ZM25.0959 30.073L25.8074 29.3663L16.9157 20.4136L16.2043 21.1202L15.4928 21.8268L24.3845 30.7796L25.0959 30.073ZM16.2043 21.1202L16.9083 21.8265L25.8934 12.8694L25.1894 12.1631L24.4853 11.4568L15.5002 20.4139L16.2043 21.1202Z" fill="#DDD7F9"/>
</svg>
